<?xml version="1.0" encoding="UTF-8"?>
<svg id="Layer_2" data-name="Layer 2" xmlns="http://www.w3.org/2000/svg" viewBox="0 0 1128.08 162.67">
  <defs>
    <style>
      .cls-1 {
        fill: #ff6301;
      }

      .cls-2 {
        font-family: Inter-SemiBold, Inter;
        font-size: 136.2px;
        font-weight: 600;
      }

      .cls-3 {
        letter-spacing: -.03em;
      }

      .cls-4 {
        letter-spacing: -.02em;
      }

      .cls-5 {
        letter-spacing: -.02em;
      }

      .cls-6 {
        letter-spacing: -.02em;
      }

      .cls-7 {
        letter-spacing: -.04em;
      }

      .cls-8 {
        letter-spacing: -.04em;
      }

      .cls-9 {
        letter-spacing: -.04em;
      }

      .cls-10 {
        letter-spacing: 0em;
      }

      .cls-11 {
        fill: #00a1a6;
      }
    </style>
  </defs>
  <g id="Layer_1-2" data-name="Layer 1">
    <g>
      <g>
        <path class="cls-11" d="M71.83,109.64c0,10.61,2.28,20.69,6.37,29.77H0S86.72,4.16,86.72,4.16h36.89s8,34.12,8,34.12c-33.97,6-59.77,35.67-59.77,71.36Z"/>
        <path class="cls-1" d="M155.31,139.41h-2.26c-30.2,0-54.68-23.32-54.68-52.1,0-21.61,13.81-40.14,33.48-48.03l23.45,100.08v.05Z"/>
        <g>
          <path class="cls-11" d="M169.8,20.34c.31.22.5.79.4,1.14-.01.04-.3.52-.36.64-1.99,3.61-6.12,7.22-9.6,9.33-3.93,2.38-8.31,4.18-12.86,4.95-1.29-2.27-2.31-4.73-3.54-7.04l2.03-1.79c5.57-4.42,14.36-8.02,21.56-7.59.5.03,2.05.14,2.38.38ZM158.59,24.69c-2.5-1.27-5.11,1.39-3.66,3.85s5.37,1.13,5.03-1.82c-.09-.78-.69-1.68-1.37-2.03Z"/>
          <path class="cls-11" d="M156.94,34.43l-1.54,4.75-.29.4-7.81,3.94c-.53.14-.69-.13-.65-.65l1.08-5.45c3.21-.56,6.27-1.62,9.21-2.99Z"/>
          <path class="cls-11" d="M151.22,22.83c.11.12-.04.13-.1.17-.66.43-1.5.79-2.17,1.2-1.53.92-2.99,1.92-4.38,3.05-.22.18-1.16,1.13-1.32,1.15l-4.95-2.44c-.23-.1-.54-.43-.38-.69,2.67-1.46,5.45-2.7,8.16-4.08l.33.02,4.82,1.63Z"/>
          <path class="cls-11" d="M142.74,31.07l2.34,4.72c-.73,2.02-3.62,2.82-5.53,2.14l.89-.44c.41-.25.74-.56,1.05-.93l.46-.76c-2.39,1.27-5.13,1.64-7.82,1.6.02-.11.14-.14.23-.19.81-.48,1.72-.96,2.44-1.6,1.27-1.13,2.18-3.16,3.78-3.92.23-.11,2.07-.68,2.16-.61Z"/>
        </g>
      </g>
      <text class="cls-2" transform="translate(218.46 117.65)"><tspan class="cls-7" x="0" y="0">R</tspan><tspan class="cls-6" x="83.72" y="0">e</tspan><tspan class="cls-3" x="162.18" y="0">al </tspan><tspan class="cls-9" x="300.14" y="0">A</tspan><tspan class="cls-5" x="393.76" y="0">d</tspan><tspan class="cls-8" x="476.48" y="0">v</tspan><tspan class="cls-3" x="550.49" y="0">e</tspan><tspan class="cls-10" x="627.62" y="0">r</tspan><tspan class="cls-4" x="680.74" y="0">tise</tspan></text>
    </g>
  </g>
</svg>